<svg xmlns="http://www.w3.org/2000/svg" version="1.1" xmlns:xlink="http://www.w3.org/1999/xlink" width="75" height="75"><svg width="75" height="75" viewBox="0 0 75 75" fill="none" xmlns="http://www.w3.org/2000/svg">
<g clip-path="url(#clip0_80_1339)">
<path fill-rule="evenodd" clip-rule="evenodd" d="M37.5 28.9965L65.1923 18.3076V53.525C65.1923 54.1608 64.8011 54.7313 64.2078 54.9602L37.5 65.2692V28.9965Z" fill="#5C85D7"></path>
<path fill-rule="evenodd" clip-rule="evenodd" d="M37.5002 13.251L51.9807 18.46L37.5002 24.0493L23.0198 18.46L37.5002 13.251ZM14.4233 25.0364L32.8848 32.1623V58.5404L14.4233 51.4146V25.0364ZM42.1156 58.5404V32.1623L60.5771 25.0364V51.4146L42.1156 58.5404ZM39.5833 4.1905C38.2368 3.70615 36.7636 3.70615 35.4171 4.1905L8.24567 13.9647C6.41392 14.6236 5.19253 16.361 5.19253 18.3077V53.525C5.19253 56.0686 6.75744 58.3501 9.13041 59.2661L35.8382 69.5749C36.9078 69.9878 38.0927 69.9878 39.1622 69.5749L65.8701 59.2661C68.243 58.3501 69.8079 56.0686 69.8079 53.525V18.3077C69.8079 16.361 68.5865 14.6236 66.7548 13.9647L39.5833 4.1905Z" fill="#FCFEA8"></path>
</g>
<defs>
<clipPath id="SvgjsClipPath1001">
<rect width="73.8462" height="73.8462" fill="white" transform="translate(0.577148 0.653809)"></rect>
</clipPath>
</defs>
</svg><style>@media (prefers-color-scheme: light) { :root { filter: none; } }
@media (prefers-color-scheme: dark) { :root { filter: none; } }
</style></svg>